PathFileType        4      (X/Y/Z)      C:\Users\cpontonn\Documents\TRAVAIL - COURS\DIGISPORT\Partage Nico\Partage Nico DIGISPORT\TP OPENSIM - eleves - work\DATA\transformed_Statique.trc         
DataRate	CameraRate	NumFrames	NumMarkers	Units	OrigDataRate	OrigDataStartFrame	OrigNumFrames
100.0	100.0	5	38	mm	100.0	153	610
Frame#	Time	LFHD			LBHD			RFHD			RBHD			C7			T10			CLAV			STRN			LSHO			LRAD			LHUM			LWRB			LWRA			LCAR			RSHO			RRAD			RHUM			RWRB			RWRA			RCAR			LFWT			LBWT			RFWT			RBWT			LKNE			LKNI			LANE			LHEE			LANI			LTAR			LTOE			RKNE			RKNI			RANE			RHEE			RANI			RTAR			RTOE			
		X1	Y1	Z1	X2	Y2	Z2	X3	Y3	Z3	X4	Y4	Z4	X5	Y5	Z5	X6	Y6	Z6	X7	Y7	Z7	X8	Y8	Z8	X9	Y9	Z9	X10	Y10	Z10	X11	Y11	Z11	X12	Y12	Z12	X13	Y13	Z13	X14	Y14	Z14	X15	Y15	Z15	X16	Y16	Z16	X17	Y17	Z17	X18	Y18	Z18	X19	Y19	Z19	X20	Y20	Z20	X21	Y21	Z21	X22	Y22	Z22	X23	Y23	Z23	X24	Y24	Z24	X25	Y25	Z25	X26	Y26	Z26	X27	Y27	Z27	X28	Y28	Z28	X29	Y29	Z29	X30	Y30	Z30	X31	Y31	Z31	X32	Y32	Z32	X33	Y33	Z33	X34	Y34	Z34	X35	Y35	Z35	X36	Y36	Z36	X37	Y37	Z37	X38	Y38	Z38	
153	1.52	91.96609999999994	1794.80249	412.7008700000001	101.00819999999997	1742.75964	273.7498500000001	-44.275240000000046	1798.06824	406.55344000000014	-24.84209000000003	1736.15881	256.9600800000001	18.15280999999997	1614.12219	227.35580000000007	16.31358999999998	1385.66956	159.86702000000008	16.95425999999996	1540.73511	355.9507800000001	14.376059999999951	1365.73889	403.11023000000006	219.17968999999997	1578.21838	281.9110100000001	276.35421999999994	1202.10242	268.1376300000001	216.76307999999997	1207.87781	237.6322300000001	289.11886999999996	964.43469	363.64960000000013	214.99015999999995	966.18335	388.01794000000007	267.77340999999996	893.59448	420.9190700000001	-173.82819000000003	1575.98987	282.0425100000001	-242.14038000000002	1200.72327	263.62	-189.07916000000003	1202.95154	231.15253000000007	-268.69482000000005	960.427	361.75861	-206.35912000000005	963.03778	400.01736000000005	-263.85965000000004	890.82935	412.30222	114.69011999999994	1069.59729	430.29602000000006	45.10796999999997	1110.13037	238.54131000000007	-76.16935000000005	1069.80261	438.6725200000001	-36.06495000000003	1109.52368	241.37833000000006	187.23539999999997	564.039	250.97136000000006	79.57554999999998	521.52814	266.19870000000003	195.04481999999996	107.82045999999998	233.29868000000002	137.04300999999998	27.42689999999999	158.58665000000002	108.33970999999997	112.36413999999999	250.6568	229.75718999999995	44.42081999999998	391.69867	149.01955999999996	46.64193999999997	450.88797	-169.87439000000003	559.05975	285.62262000000004	-80.60809000000003	509.95447	280.21384000000006	-184.96542000000002	98.90706999999999	236.28834999999998	-121.43974000000001	30.70049999999999	160.20904999999996	-93.65762000000002	119.24207999999999	252.23265	-220.64003000000005	41.221739999999976	391.70734	-137.26094000000006	43.26765999999997	452.64099	
154	1.53	91.95562999999994	1794.7489	412.7279100000001	98.26513999999997	1742.7749	270.56393000000014	-44.26757000000005	1798.00562	406.5938700000001	-24.835020000000032	1736.12708	257.0199000000001	17.785839999999972	1614.01526	227.2114100000001	16.383679999999977	1385.67041	159.97401000000008	16.975899999999957	1540.75232	356.07654000000014	14.41413999999995	1365.74243	403.20187000000004	219.21030999999996	1578.24316	282.0046400000001	275.1877099999999	1202.09973	268.4460800000001	216.76027999999997	1207.88037	237.77383000000012	288.24370999999996	964.49786	363.6157800000001	214.94770999999994	966.21271	388.17258000000004	267.68468999999993	893.62982	421.10718000000014	-173.80023000000003	1575.95679	282.1220100000001	-242.09166000000002	1200.72144	263.66522	-189.03909000000002	1202.94104	231.19046000000006	-268.71249000000006	960.38092	361.70435	-206.40013000000005	962.93579	399.98233000000005	-263.9064900000001	890.76978	412.22211	114.70810999999995	1069.57068	430.40707000000003	45.167519999999975	1110.12927	238.66066000000006	-76.13664000000006	1069.77783	438.7497900000001	-36.00509000000003	1109.52173	241.47368000000006	187.26537999999996	564.01801	251.02928000000006	79.59992999999997	521.5368	266.26291000000003	195.05913999999999	107.84743999999999	233.29344000000003	137.04687999999996	27.42220999999999	158.59077000000002	108.34028999999997	112.36654999999999	250.66187	229.75881999999993	44.39934999999998	391.70004	149.01159999999993	46.63207999999997	450.88321	-169.83957000000004	559.04608	285.67249000000004	-80.56319000000003	509.93192	280.25909000000007	-184.96220000000002	98.90034999999999	236.27697999999998	-121.44445000000002	30.71077999999999	160.20058999999998	-93.65051000000003	119.23327999999998	252.22639	-220.62990000000005	41.21183999999998	391.70117	-137.26071000000005	43.252939999999974	452.65405	
155	1.54	91.94256999999995	1794.68091	412.7612000000001	101.02977999999997	1742.72571	273.8607500000001	-44.28032000000005	1797.95667	406.6489600000001	-24.807980000000033	1736.07861	257.0746800000001	17.812369999999973	1613.99133	227.30032000000008	16.41531999999998	1385.63062	160.0482000000001	17.006779999999956	1540.74426	356.19690000000014	14.46103999999995	1365.74463	403.3019100000001	219.24528999999998	1578.25354	282.13449000000014	275.19976999999994	1202.1012	268.56229000000013	216.78293999999997	1207.91064	237.8880600000001	288.20037999999994	964.54132	363.80612000000013	214.89289999999994	966.24225	388.32455000000004	267.57879999999994	893.66211	421.3028300000001	-173.76347000000004	1575.91614	282.2108500000001	-242.03896000000003	1200.66577	263.75839	-189.00125000000003	1202.90991	231.24138000000005	-268.74258000000003	960.31677	361.63846	-206.40547000000007	962.79877	399.8960000000001	-263.93808000000007	890.69135	412.10504	114.72758999999995	1069.55334	430.51236000000006	45.23895999999997	1110.10864	238.76945000000006	-76.13338000000006	1069.76526	438.86331000000007	-35.93412000000003	1109.52478	241.55322000000007	187.67617999999996	564.13794	250.86855000000006	79.62529999999997	521.52771	266.29559000000006	194.81209999999996	107.65294999999999	233.31026000000003	137.03769999999997	27.42285999999999	158.58275000000003	108.33379999999997	112.36603999999998	250.67062	229.76845999999995	44.39575999999998	391.70349	149.02651999999995	46.63556999999997	450.88477	-169.83192000000003	559.04681	285.7146900000001	-80.56294000000003	509.92838	280.29013000000003	-184.94960000000003	98.91602999999999	236.27990999999997	-121.43626000000002	30.704719999999988	160.20131999999998	-93.65353000000003	119.22259999999999	252.24005	-220.63080000000005	41.216589999999975	391.70242	-137.26578000000006	43.271249999999974	452.6575	
156	1.55	91.91279999999995	1794.63733	412.7963600000001	98.26954999999997	1742.74634	270.6590600000001	-44.28147000000005	1797.90759	406.6738900000001	-24.78064000000003	1736.05933	257.1227100000001	17.84366999999997	1613.98132	227.3891800000001	16.45174999999998	1385.62952	160.11879000000008	17.037329999999958	1540.755	356.3024600000001	14.49986999999995	1365.72424	403.39407000000006	219.27697999999998	1578.27478	282.19724000000014	275.23461999999995	1202.1322	268.6839900000001	216.77549999999997	1207.93494	238.0197900000001	288.13131999999996	964.55872	363.9801600000001	214.85929999999993	966.29974	388.50415000000004	267.5189199999999	893.69714	421.4802200000001	-173.72388000000004	1575.87903	282.30655000000013	-241.99886000000004	1200.64319	263.82474	-188.94420000000002	1202.87976	231.28598000000005	-268.74176000000006	960.26093	361.56323	-206.42480000000006	962.7489	399.84418000000005	-263.97610000000003	890.59845	411.9837	114.75973999999994	1069.54761	430.65564000000006	45.287839999999974	1110.10327	238.85654000000005	-76.10910000000005	1069.75098	438.9517200000001	-35.88809000000003	1109.51917	241.64856000000006	187.32891999999998	564.01105	251.16931000000005	79.65478999999998	521.5296	266.33551000000006	195.05069999999998	107.84088999999999	233.31465000000003	137.04410999999996	27.42052999999999	158.58427000000003	108.34212999999997	112.35849999999999	250.67482	229.74477999999993	44.40334999999998	391.70346	149.00930999999994	46.61707999999997	450.89532	-169.79562000000004	559.03552	285.75946000000005	-80.52894000000003	509.91095	280.33820000000003	-184.95656000000002	98.89173999999998	236.29575999999997	-121.43935000000002	30.700669999999988	160.21305999999998	-93.66060000000003	119.20035999999999	252.23177	-220.63754000000006	41.211799999999975	391.70709	-137.26068000000006	43.26944999999997	452.66885	
157	1.56	91.89269999999995	1794.5752	412.80765000000014	101.02984999999997	1742.69104	273.9618200000001	-44.28630000000005	1797.87561	406.7217100000001	-24.74935000000003	1735.99243	257.17761000000013	18.25313999999997	1614.0957	227.69661000000008	16.51633999999998	1385.62036	160.18819000000008	17.077129999999958	1540.74023	356.4237400000001	14.54283999999995	1365.72632	403.51831000000004	219.30266999999998	1578.29285	282.3129000000001	276.39831999999996	1202.14917	268.67288000000013	216.78226999999998	1207.95813	238.1150500000001	288.09166999999997	964.58276	364.1820100000001	214.81574999999995	966.33887	388.6659900000001	267.44588999999996	893.73907	421.6647900000001	-173.68343000000002	1575.8606	282.3998400000001	-241.94460000000004	1200.64099	263.8573	-188.87733000000003	1202.86682	231.34492000000006	-268.75647000000004	960.19312	361.48703	-206.43842000000006	962.61877	399.74527000000006	-263.99890000000005	890.51147	411.86246	114.78010999999994	1069.53809	430.74960000000004	45.362449999999974	1110.09521	238.94493000000006	-76.09727000000005	1069.73743	439.05301000000003	-35.84245000000003	1109.51929	241.72926000000007	187.34260999999998	563.98779	251.23503000000005	79.67463999999997	521.52429	266.37631000000005	195.06467999999998	107.83279999999999	233.31306000000004	137.05834999999996	27.42061999999999	158.59312000000003	108.34485999999997	112.36187999999999	250.65576	229.76050999999995	44.39816999999998	391.70224	149.00785999999994	46.63036999999997	450.89368	-169.77843000000001	559.03058	285.77585000000005	-80.51449000000002	509.89923	280.37610000000006	-184.93558000000002	98.91118999999999	236.29619999999997	-121.42284000000001	30.70587999999999	160.21184999999997	-93.63969000000003	119.22453999999999	252.26056	-220.63095000000007	41.207949999999975	391.7052	-137.25693000000007	43.24618999999997	452.66217	
